<?xml version="1.0" encoding="utf-8"?>
<!-- Generator: Adobe Illustrator 19.0.0, SVG Export Plug-In . SVG Version: 6.00 Build 0)  -->
<svg version="1.1"
	 id="Layer_1" xmlns:inkscape="http://www.inkscape.org/namespaces/inkscape" xmlns:dc="http://purl.org/dc/elements/1.1/" xmlns:cc="http://creativecommons.org/ns#" xmlns:sodipodi="http://sodipodi.sourceforge.net/DTD/sodipodi-0.dtd" xmlns:rdf="http://www.w3.org/1999/02/22-rdf-syntax-ns#" sodipodi:docname="nuget.svg" inkscape:version="0.48.2 r9819"
	 xmlns="http://www.w3.org/2000/svg" xmlns:xlink="http://www.w3.org/1999/xlink" x="0px" y="0px" viewBox="-123 215.6 363.7 363.4"
	 style="enable-background:new -123 215.6 363.7 363.4;" xml:space="preserve">
<style type="text/css">
	.st0{fill:#C7EBF1;}
	.st1{opacity:0.823;fill:url(#rect3798_1_);enable-background:new    ;}
	.st2{fill:#016FD2;}
	.st3{opacity:0.1726;clip-path:url(#SVGID_2_);fill:#5FFFE6;enable-background:new    ;}
	.st4{fill:#FFFFFF;}
</style>
<g id="layer1" transform="translate(-369.71583,-417.98637)">
	<path id="rect3796" class="st0" d="M354.2,578.3h163.9c83.8,0,151.6,67.9,151.6,151.6v163.9c0,83.8-67.9,151.6-151.6,151.6H354.2
		c-83.8,0-151.6-67.9-151.6-151.6V729.9C202.6,646.2,270.5,578.3,354.2,578.3z"/>
	
		<radialGradient id="rect3798_1_" cx="665.011" cy="623.1671" r="224.4048" gradientTransform="matrix(1.7825 0.1437 9.816448e-002 -1.2179 -810.4044 1477.6108)" gradientUnits="userSpaceOnUse">
		<stop  offset="0" style="stop-color:#0663B4"/>
		<stop  offset="1" style="stop-color:#16ADFF;stop-opacity:0.6847"/>
	</radialGradient>
	<path id="rect3798" class="st1" d="M355.4,592.1h161.5c79.3,0,143.6,64.3,143.6,143.6v156.9c0,79.3-64.3,143.6-143.6,143.6H355.4
		c-79.3,0-143.6-64.3-143.6-143.6V735.7C211.8,656.4,276.1,592.1,355.4,592.1z"/>
	<path id="rect3887" class="st2" d="M357.1,629.5h142.8c66.2,0,119.9,53.7,119.9,119.9v142.8c0,66.2-53.7,119.9-119.9,119.9H357.1
		c-66.2,0-119.9-53.7-119.9-119.9V749.4C237.2,683.2,290.9,629.5,357.1,629.5z"/>
	<g>
		<defs>
			<path id="SVGID_1_" d="M355.4,592.1h161.5c79.3,0,143.6,64.3,143.6,143.6v156.9c0,79.3-64.3,143.6-143.6,143.6H355.4
				c-79.3,0-143.6-64.3-143.6-143.6V735.7C211.8,656.4,276.1,592.1,355.4,592.1z"/>
		</defs>
		<clipPath id="SVGID_2_">
			<use xlink:href="#SVGID_1_"  style="overflow:visible;"/>
		</clipPath>
		<circle id="path3828" class="st3" cx="243.2" cy="326.3" r="576.7"/>
	</g>
	<circle id="path3832" class="st4" cx="502.8" cy="893.8" r="98"/>
	<circle id="path3834" class="st4" cx="322" cy="714.6" r="56.7"/>
</g>
</svg>
