<?xml version="1.0" encoding="UTF-8" ?>
<!DOCTYPE svg PUBLIC "-//W3C//DTD SVG 1.1//EN" "http://www.w3.org/Graphics/SVG/1.1/DTD/svg11.dtd">
<svg width="727pt" height="725pt" viewBox="0 0 727 725" version="1.1" xmlns="http://www.w3.org/2000/svg">
<g id="#6c6c6c6c">
<path fill="#6c6c6c" opacity="0.42" d=" M 339.69 0.00 L 347.60 0.00 C 344.65 0.04 341.66 0.03 338.73 0.10 L 339.69 0.00 Z" />
</g>
<g id="#a2c2dae9">
<path fill="#a2c2da" opacity="0.91" d=" M 347.60 0.00 L 353.18 0.00 L 351.90 0.34 C 350.44 0.71 349.00 1.11 347.54 1.45 C 307.48 4.16 267.50 12.09 230.21 27.20 C 234.30 34.61 238.04 42.22 240.92 50.19 C 236.75 42.13 232.21 34.27 228.09 26.19 L 227.81 25.62 C 233.98 24.33 239.76 21.72 245.72 19.72 C 271.90 10.45 299.20 4.44 326.85 1.77 C 328.61 2.53 330.64 2.29 332.11 1.00 C 333.76 0.78 337.08 0.33 338.73 0.10 C 341.66 0.03 344.65 0.04 347.60 0.00 Z" />
</g>
<g id="#ebebebeb">
<path fill="#ebebeb" opacity="0.92" d=" M 353.18 0.00 L 377.68 0.00 L 377.33 0.03 C 368.85 0.42 360.38 0.41 351.90 0.34 L 353.18 0.00 Z" />
<path fill="#ebebeb" opacity="0.92" d=" M 0.00 350.44 L 0.40 350.92 C 0.78 359.30 0.60 367.68 0.38 376.07 L 0.00 376.55 L 0.00 350.44 Z" />
</g>
<g id="#98989898">
<path fill="#989898" opacity="0.60" d=" M 377.68 0.00 L 383.82 0.00 L 383.84 0.54 C 382.58 1.37 381.20 1.67 379.71 1.43 C 379.12 1.08 377.93 0.38 377.33 0.03 L 377.68 0.00 Z" />
</g>
<g id="#4a4a4a4a">
<path fill="#4a4a4a" opacity="0.29" d=" M 383.82 0.00 L 388.23 0.00 L 388.70 0.38 C 387.29 1.39 385.22 1.88 383.84 0.54 L 383.82 0.00 Z" />
</g>
<g id="#6b6b6b6b">
<path fill="#6b6b6b" opacity="0.42" d=" M 326.85 1.77 C 328.37 0.64 330.32 0.38 332.11 1.00 C 330.64 2.29 328.61 2.53 326.85 1.77 Z" />
<path fill="#6b6b6b" opacity="0.42" d=" M 394.86 1.21 C 396.63 0.48 398.63 0.68 400.16 1.87 C 398.38 2.58 396.39 2.38 394.86 1.21 Z" />
<path fill="#6b6b6b" opacity="0.42" d=" M 1.26 394.86 C 2.40 396.42 2.56 398.42 1.81 400.19 C 0.66 398.62 0.50 396.62 1.26 394.86 Z" />
</g>
<g id="#74b1e1ff">
<path fill="#74b1e1" opacity="1.00" d=" M 347.54 1.45 C 349.00 1.11 350.44 0.71 351.90 0.34 C 360.38 0.41 368.85 0.42 377.33 0.03 C 377.93 0.38 379.12 1.08 379.71 1.43 L 380.50 1.80 C 369.51 1.73 358.52 1.63 347.54 1.45 Z" />
</g>
<g id="#cbddeaf1">
<path fill="#cbddea" opacity="0.95" d=" M 379.71 1.43 C 381.20 1.67 382.58 1.37 383.84 0.54 C 385.22 1.88 387.29 1.39 388.70 0.38 C 390.75 0.67 392.80 0.94 394.86 1.21 C 396.39 2.38 398.38 2.58 400.16 1.87 C 401.74 1.91 403.33 1.94 404.93 1.97 C 405.91 3.27 407.52 3.78 409.11 3.43 C 409.58 3.48 410.54 3.58 411.02 3.63 C 410.65 3.60 409.91 3.55 409.54 3.53 C 399.86 2.83 390.18 2.37 380.50 1.80 L 379.71 1.43 Z" />
</g>
<g id="#2f8bd3ff">
<path fill="#2f8bd3" opacity="1.00" d=" M 230.21 27.20 C 267.50 12.09 307.48 4.16 347.54 1.45 C 358.52 1.63 369.51 1.73 380.50 1.80 C 390.18 2.37 399.86 2.83 409.54 3.53 C 435.22 9.35 461.41 13.41 486.10 22.93 C 511.75 33.07 537.30 44.13 559.96 60.06 C 601.74 86.83 638.07 122.27 664.97 164.02 C 683.47 190.22 696.48 219.78 707.18 249.88 C 714.11 269.73 717.85 290.49 721.91 311.06 C 709.38 319.84 696.64 328.30 683.79 336.58 C 686.25 339.03 688.73 341.47 691.33 343.79 C 665.87 327.05 637.99 313.26 608.05 306.83 C 599.17 304.74 590.15 303.35 581.20 301.71 C 578.56 299.94 576.11 299.74 573.83 301.11 C 572.30 301.01 570.78 300.92 569.27 300.85 C 558.42 300.14 547.54 300.09 536.70 300.72 C 535.24 300.77 533.79 300.85 532.35 300.93 C 530.66 301.13 527.29 301.52 525.61 301.71 C 487.30 306.68 449.91 320.04 418.12 342.15 C 410.88 347.15 404.04 352.70 396.99 357.97 C 383.87 367.01 373.30 379.10 363.54 391.57 C 352.52 405.86 342.54 421.20 336.04 438.13 C 326.54 459.77 319.77 482.56 316.10 505.92 C 274.11 517.31 231.97 528.30 189.19 536.31 C 145.76 544.61 101.96 550.95 57.95 555.21 C 63.15 563.61 68.54 571.88 73.75 580.28 C 55.88 557.89 42.46 532.30 30.72 506.29 C 20.35 483.33 14.17 458.88 7.67 434.65 C 5.40 415.63 2.79 396.66 1.36 377.55 C 1.49 368.17 1.48 358.79 1.28 349.42 C 1.55 346.35 1.84 343.33 2.02 340.28 C 5.91 298.28 14.87 256.26 32.93 217.94 C 43.76 224.44 54.86 231.06 67.33 233.82 C 85.75 240.13 105.29 241.71 124.66 240.99 C 126.35 240.82 129.72 240.49 131.41 240.33 C 143.08 237.99 154.65 235.09 165.81 230.91 C 186.09 224.06 204.11 210.96 217.22 194.08 C 234.97 172.79 246.59 146.70 250.33 119.21 C 252.04 116.55 252.18 114.10 250.74 111.85 C 250.82 105.63 250.92 99.42 250.96 93.21 C 252.24 90.28 252.00 87.79 250.25 85.74 C 248.24 73.64 245.24 61.68 240.92 50.19 C 238.04 42.22 234.30 34.61 230.21 27.20 Z" />
</g>
<g id="#67676767">
<path fill="#676767" opacity="0.40" d=" M 404.93 1.97 C 406.51 1.52 408.17 2.04 409.11 3.43 C 407.52 3.78 405.91 3.27 404.93 1.97 Z" />
<path fill="#676767" opacity="0.40" d=" M 724.17 317.83 C 725.32 318.99 725.56 320.67 724.93 322.16 C 723.73 321.01 723.49 319.31 724.17 317.83 Z" />
<path fill="#676767" opacity="0.40" d=" M 318.04 724.38 C 319.22 723.02 321.21 723.59 322.06 725.00 L 318.49 725.00 L 318.04 724.38 Z" />
</g>
<g id="#9ab9d0de">
<path fill="#9ab9d0" opacity="0.87" d=" M 411.02 3.63 C 495.49 13.28 575.43 55.75 632.34 118.67 C 682.66 173.38 715.06 244.09 724.17 317.83 C 723.49 319.31 723.73 321.01 724.93 322.16 C 724.96 324.05 725.00 325.94 725.04 327.84 C 724.43 329.35 724.73 331.02 725.96 332.14 C 726.07 333.86 726.31 337.28 726.43 339.00 C 724.47 342.09 724.66 344.44 727.00 346.03 L 727.00 351.46 L 726.97 352.32 C 726.56 350.40 726.10 348.51 725.73 346.60 C 724.74 334.73 723.84 322.82 721.91 311.06 C 717.85 290.49 714.11 269.73 707.18 249.88 C 696.48 219.78 683.47 190.22 664.97 164.02 C 638.07 122.27 601.74 86.83 559.96 60.06 C 537.30 44.13 511.75 33.07 486.10 22.93 C 461.41 13.41 435.22 9.35 409.54 3.53 C 409.91 3.55 410.65 3.60 411.02 3.63 Z" />
</g>
<g id="#64646465">
<path fill="#646464" opacity="0.40" d=" M 223.82 28.08 C 224.78 26.76 226.09 25.66 227.81 25.62 L 228.09 26.19 C 227.26 27.74 225.37 27.94 223.82 28.08 Z" />
<path fill="#646464" opacity="0.40" d=" M 699.12 503.27 C 699.03 501.59 699.32 499.50 701.15 498.87 C 701.67 500.67 700.45 502.22 699.12 503.27 Z" />
<path fill="#646464" opacity="0.40" d=" M 498.89 701.13 C 499.54 699.31 501.61 699.01 503.29 699.08 C 502.25 700.42 500.70 701.67 498.89 701.13 Z" />
</g>
<g id="#fefefefe">
<path fill="#fefefe" opacity="1.00" d=" M 223.82 28.08 C 225.37 27.94 227.26 27.74 228.09 26.19 C 232.21 34.27 236.75 42.13 240.92 50.19 C 245.24 61.68 248.24 73.64 250.25 85.74 C 248.90 88.70 249.13 91.19 250.96 93.21 C 250.92 99.42 250.82 105.63 250.74 111.85 C 248.99 114.50 248.86 116.96 250.33 119.21 C 246.59 146.70 234.97 172.79 217.22 194.08 C 202.45 209.37 185.11 221.97 165.81 230.91 C 154.65 235.09 143.08 237.99 131.41 240.33 C 129.72 240.49 126.35 240.82 124.66 240.99 C 105.29 241.71 85.75 240.13 67.33 233.82 C 55.02 228.38 42.53 223.06 31.64 215.03 C 32.10 214.07 32.56 213.12 33.03 212.17 C 37.50 204.60 41.74 196.86 44.77 188.59 C 45.14 187.73 45.50 186.87 45.84 186.01 C 47.89 185.86 49.25 184.01 49.31 182.05 C 49.48 181.11 49.66 180.18 49.83 179.25 C 52.06 178.86 52.69 176.54 52.87 174.61 C 78.02 133.26 111.43 97.01 150.77 68.81 C 152.94 67.29 155.08 65.72 157.22 64.16 C 162.87 60.30 168.67 56.65 174.45 52.96 C 176.56 52.92 178.49 51.91 179.47 49.99 L 179.92 49.74 C 182.05 48.59 184.16 47.43 186.24 46.20 C 187.07 45.73 187.91 45.26 188.76 44.81 C 192.29 42.99 195.84 41.20 199.36 39.36 C 200.90 38.57 202.44 37.79 203.98 37.02 C 207.36 35.39 210.74 33.73 214.11 32.07 C 214.95 31.68 215.79 31.28 216.64 30.90 C 218.50 31.32 220.37 30.58 221.38 28.94 C 222.19 28.65 223.00 28.36 223.82 28.08 Z" />
<path fill="#fefefe" opacity="1.00" d=" M 532.35 300.93 C 533.79 300.85 535.24 300.77 536.70 300.72 C 547.55 300.67 558.41 300.71 569.27 300.85 C 570.78 300.92 572.30 301.01 573.83 301.11 C 576.43 302.93 578.89 303.13 581.20 301.71 C 590.15 303.35 599.17 304.74 608.05 306.83 C 637.99 313.26 665.87 327.05 691.33 343.79 C 702.47 352.72 713.49 361.83 723.65 371.88 C 724.37 372.58 725.08 373.28 725.81 374.00 C 726.12 366.76 726.63 359.55 726.97 352.32 L 727.00 351.46 L 727.00 374.56 C 726.84 377.32 726.75 380.16 726.64 382.95 C 725.26 384.78 725.30 387.27 726.74 389.07 C 726.38 390.23 726.04 391.40 725.70 392.57 C 725.57 394.27 725.30 397.67 725.17 399.36 C 725.05 400.86 724.94 402.37 724.85 403.88 C 723.64 405.40 723.43 407.40 724.13 409.20 C 724.08 409.60 723.99 410.40 723.94 410.80 C 722.74 411.94 722.44 413.62 723.06 415.14 C 723.03 415.80 722.97 417.12 722.94 417.79 C 721.73 418.93 721.47 420.62 722.14 422.12 C 721.67 424.66 721.35 427.29 720.94 429.86 C 719.75 431.02 719.52 432.72 720.23 434.20 C 717.07 451.80 712.09 469.01 706.16 485.87 C 704.67 486.73 703.41 488.17 703.65 490.01 C 703.55 491.40 703.46 492.80 703.36 494.20 C 701.70 494.64 700.60 496.36 701.07 498.06 L 701.15 498.87 C 699.32 499.50 699.03 501.59 699.12 503.27 L 698.86 503.88 C 697.96 505.95 697.07 508.02 696.22 510.11 L 695.90 510.85 C 694.20 514.26 692.50 517.67 690.98 521.17 C 689.57 523.97 688.10 526.73 686.68 529.53 C 684.63 533.03 682.89 536.70 681.18 540.37 C 680.78 541.07 680.40 541.78 680.02 542.49 C 678.09 543.48 677.08 545.42 677.06 547.54 C 645.71 600.74 600.84 645.83 547.54 677.06 C 545.42 677.08 543.48 678.09 542.49 680.01 C 541.78 680.40 541.07 680.78 540.37 681.18 C 536.71 682.90 533.05 684.64 529.53 686.65 C 527.76 687.53 525.99 688.40 524.22 689.27 C 521.07 690.75 517.93 692.26 514.82 693.83 C 513.32 694.56 511.83 695.28 510.34 696.01 C 508.46 695.63 506.62 696.41 505.62 698.05 C 504.84 698.38 504.06 698.73 503.29 699.08 C 501.61 699.01 499.54 699.31 498.89 701.13 L 498.07 701.04 C 496.36 700.56 494.63 701.67 494.21 703.35 C 492.88 703.48 491.57 703.63 490.26 703.79 C 488.37 703.54 486.59 704.45 485.69 706.12 C 468.98 712.32 451.69 716.86 434.21 720.32 C 432.75 719.56 431.04 719.75 429.86 720.92 C 427.29 721.34 424.66 721.67 422.12 722.15 C 420.63 721.48 418.93 721.73 417.78 722.93 C 417.12 722.97 415.80 723.07 415.14 723.11 C 413.64 722.46 411.95 722.68 410.75 723.80 C 410.33 724.00 409.49 724.40 409.07 724.60 C 407.64 723.02 405.26 723.34 404.07 725.00 L 324.66 725.00 L 325.54 724.96 C 350.36 723.22 375.24 724.27 400.09 723.95 C 399.22 723.16 398.36 722.38 397.50 721.60 C 375.23 701.76 355.68 678.62 341.99 652.01 C 326.96 624.33 318.18 593.52 314.84 562.27 C 314.58 559.37 314.43 556.57 314.26 553.72 C 313.90 544.54 313.86 535.36 314.18 526.19 C 314.35 523.02 314.59 519.94 314.82 516.80 C 315.11 513.17 315.59 509.52 316.10 505.92 C 319.77 482.56 326.54 459.77 336.04 438.13 C 351.29 407.97 371.58 380.36 396.99 357.97 C 404.04 352.70 410.88 347.15 418.12 342.15 C 449.91 320.04 487.30 306.68 525.61 301.71 C 527.29 301.52 530.66 301.13 532.35 300.93 Z" />
</g>
<g id="#a0a0a0a0">
<path fill="#a0a0a0" opacity="0.63" d=" M 216.64 30.90 C 217.80 29.48 219.55 28.74 221.38 28.94 C 220.37 30.58 218.50 31.32 216.64 30.90 Z" />
<path fill="#a0a0a0" opacity="0.63" d=" M 505.62 698.05 C 506.62 696.41 508.46 695.63 510.34 696.01 C 509.21 697.46 507.45 698.23 505.62 698.05 Z" />
</g>
<g id="#94949494">
<path fill="#949494" opacity="0.58" d=" M 203.98 37.02 C 207.33 35.32 210.68 33.62 214.11 32.07 C 210.74 33.73 207.36 35.39 203.98 37.02 Z" />
</g>
<g id="#9f9f9f9f">
<path fill="#9f9f9f" opacity="0.62" d=" M 188.76 44.81 C 192.23 42.88 195.81 41.14 199.36 39.36 C 195.84 41.20 192.29 42.99 188.76 44.81 Z" />
</g>
<g id="#8f8f8f8f">
<path fill="#8f8f8f" opacity="0.56" d=" M 179.92 49.74 C 182.01 48.54 184.12 47.37 186.24 46.20 C 184.16 47.43 182.05 48.59 179.92 49.74 Z" />
</g>
<g id="#81818181">
<path fill="#818181" opacity="0.51" d=" M 174.45 52.96 C 175.49 51.11 177.39 50.11 179.47 49.99 C 178.49 51.91 176.56 52.92 174.45 52.96 Z" />
<path fill="#818181" opacity="0.51" d=" M 49.83 179.25 C 49.91 177.23 51.24 175.65 52.87 174.61 C 52.69 176.54 52.06 178.86 49.83 179.25 Z" />
<path fill="#818181" opacity="0.51" d=" M 1.33 333.09 C 0.52 331.35 0.65 329.34 1.84 327.81 C 2.58 329.55 2.43 331.53 1.33 333.09 Z" />
</g>
<g id="#84848484">
<path fill="#848484" opacity="0.52" d=" M 150.77 68.81 C 152.88 67.21 155.02 65.64 157.22 64.16 C 155.08 65.72 152.94 67.29 150.77 68.81 Z" />
</g>
<g id="#88bee6fe">
<path fill="#88bee6" opacity="1.00" d=" M 250.25 85.74 C 252.00 87.79 252.24 90.28 250.96 93.21 C 249.13 91.19 248.90 88.70 250.25 85.74 Z" />
</g>
<g id="#8fc2e7fe">
<path fill="#8fc2e7" opacity="1.00" d=" M 250.33 119.21 C 248.86 116.96 248.99 114.50 250.74 111.85 C 252.18 114.10 252.04 116.55 250.33 119.21 Z" />
</g>
<g id="#b3b3b3b3">
<path fill="#b3b3b3" opacity="0.70" d=" M 45.84 186.01 C 46.35 184.25 47.41 182.52 49.31 182.05 C 49.25 184.01 47.89 185.86 45.84 186.01 Z" />
</g>
<g id="#abababab">
<path fill="#ababab" opacity="0.67" d=" M 33.03 212.17 C 36.54 204.11 40.47 196.25 44.77 188.59 C 41.74 196.86 37.50 204.60 33.03 212.17 Z" />
</g>
<g id="#67abdeff">
<path fill="#67abde" opacity="1.00" d=" M 165.81 230.91 C 185.11 221.97 202.45 209.37 217.22 194.08 C 204.11 210.96 186.09 224.06 165.81 230.91 Z" />
</g>
<g id="#a0c3deee">
<path fill="#a0c3de" opacity="0.93" d=" M 2.79 318.83 C 7.36 283.07 16.98 247.98 31.64 215.03 C 42.53 223.06 55.02 228.38 67.33 233.82 C 54.86 231.06 43.76 224.44 32.93 217.94 C 14.87 256.26 5.91 298.28 2.02 340.28 C 1.87 338.38 1.62 336.50 1.43 334.62 C 1.41 334.24 1.36 333.47 1.33 333.09 C 2.43 331.53 2.58 329.55 1.84 327.81 C 1.93 326.26 2.02 324.72 2.11 323.18 C 3.27 322.00 3.49 320.30 2.79 318.83 Z" />
</g>
<g id="#8abfe6ff">
<path fill="#8abfe6" opacity="1.00" d=" M 124.66 240.99 C 126.35 240.82 129.72 240.49 131.41 240.33 C 129.72 240.49 126.35 240.82 124.66 240.99 Z" />
</g>
<g id="#84bbe5ff">
<path fill="#84bbe5" opacity="1.00" d=" M 536.70 300.72 C 547.54 300.09 558.42 300.14 569.27 300.85 C 558.41 300.71 547.55 300.67 536.70 300.72 Z" />
</g>
<g id="#8ec1e7ff">
<path fill="#8ec1e7" opacity="1.00" d=" M 525.61 301.71 C 527.29 301.52 530.66 301.13 532.35 300.93 C 530.66 301.13 527.29 301.52 525.61 301.71 Z" />
</g>
<g id="#8dc1e7fe">
<path fill="#8dc1e7" opacity="1.00" d=" M 573.83 301.11 C 576.11 299.74 578.56 299.94 581.20 301.71 C 578.89 303.13 576.43 302.93 573.83 301.11 Z" />
</g>
<g id="#2774cfff">
<path fill="#2774cf" opacity="1.00" d=" M 683.79 336.58 C 696.64 328.30 709.38 319.84 721.91 311.06 C 723.84 322.82 724.74 334.73 725.73 346.60 C 725.23 355.03 724.96 363.52 723.65 371.88 C 713.49 361.83 702.47 352.72 691.33 343.79 C 688.73 341.47 686.25 339.03 683.79 336.58 Z" />
</g>
<g id="#82828282">
<path fill="#828282" opacity="0.51" d=" M 2.11 323.18 C 1.44 321.70 1.66 320.01 2.79 318.83 C 3.49 320.30 3.27 322.00 2.11 323.18 Z" />
</g>
<g id="#76767676">
<path fill="#767676" opacity="0.46" d=" M 725.04 327.84 C 726.24 328.95 726.55 330.63 725.96 332.14 C 724.73 331.02 724.43 329.35 725.04 327.84 Z" />
</g>
<g id="#e4f0f8fc">
<path fill="#e4f0f8" opacity="1.00" d=" M 1.43 334.62 C 1.62 336.50 1.87 338.38 2.02 340.28 C 1.84 343.33 1.55 346.35 1.28 349.42 L 0.72 350.38 C 1.66 348.38 1.47 346.12 0.56 344.16 C 1.58 342.64 1.55 340.67 0.45 339.22 C 0.80 337.69 1.13 336.15 1.43 334.62 Z" />
</g>
<g id="#58585858">
<path fill="#585858" opacity="0.35" d=" M 0.00 339.70 L 0.45 339.22 C 1.55 340.67 1.58 342.64 0.56 344.16 L 0.00 344.19 L 0.00 339.70 Z" />
</g>
<g id="#66666666">
<path fill="#666666" opacity="0.40" d=" M 726.43 339.00 L 727.00 339.47 L 727.00 346.03 C 724.66 344.44 724.47 342.09 726.43 339.00 Z" />
</g>
<g id="#a3a3a3a3">
<path fill="#a3a3a3" opacity="0.64" d=" M 0.00 344.19 L 0.56 344.16 C 1.47 346.12 1.66 348.38 0.72 350.38 L 0.40 350.92 L 0.00 350.44 L 0.00 344.19 Z" />
<path fill="#a3a3a3" opacity="0.64" d=" M 0.00 376.55 L 0.38 376.07 L 0.75 376.61 C 1.70 378.61 1.42 380.88 0.53 382.84 L 0.00 382.82 L 0.00 376.55 Z" />
</g>
<g id="#5f99dcff">
<path fill="#5f99dc" opacity="1.00" d=" M 725.73 346.60 C 726.10 348.51 726.56 350.40 726.97 352.32 C 726.63 359.55 726.12 366.76 725.81 374.00 C 725.08 373.28 724.37 372.58 723.65 371.88 C 724.96 363.52 725.23 355.03 725.73 346.60 Z" />
</g>
<g id="#86bde5ff">
<path fill="#86bde5" opacity="1.00" d=" M 0.72 350.38 L 1.28 349.42 C 1.48 358.79 1.49 368.17 1.36 377.55 L 0.75 376.61 L 0.38 376.07 C 0.60 367.68 0.78 359.30 0.40 350.92 L 0.72 350.38 Z" />
</g>
<g id="#5fa6ddff">
<path fill="#5fa6dd" opacity="1.00" d=" M 363.54 391.57 C 373.30 379.10 383.87 367.01 396.99 357.97 C 371.58 380.36 351.29 407.97 336.04 438.13 C 342.54 421.20 352.52 405.86 363.54 391.57 Z" />
</g>
<g id="#a8a8a8a8">
<path fill="#a8a8a8" opacity="0.66" d=" M 726.64 382.95 C 726.75 380.16 726.84 377.32 727.00 374.56 L 727.00 383.38 L 726.64 382.95 Z" />
</g>
<g id="#c4d0d8dd">
<path fill="#c4d0d8" opacity="0.87" d=" M 0.75 376.61 L 1.36 377.55 C 2.79 396.66 5.40 415.63 7.67 434.65 L 7.76 435.33 C 5.48 426.72 3.64 418.00 2.71 409.14 C 3.51 407.38 3.36 405.35 2.18 403.81 C 2.06 402.60 1.94 401.39 1.81 400.19 C 2.56 398.42 2.40 396.42 1.26 394.86 C 0.92 392.83 0.57 390.80 0.20 388.78 C 1.59 387.06 1.77 384.69 0.53 382.84 C 1.42 380.88 1.70 378.61 0.75 376.61 Z" />
</g>
<g id="#51515151">
<path fill="#515151" opacity="0.32" d=" M 0.00 382.82 L 0.53 382.84 C 1.77 384.69 1.59 387.06 0.20 388.78 L 0.00 388.30 L 0.00 382.82 Z" />
<path fill="#515151" opacity="0.32" d=" M 726.64 382.95 L 727.00 383.38 L 727.00 388.64 L 726.74 389.07 C 725.30 387.27 725.26 384.78 726.64 382.95 Z" />
</g>
<g id="#8b8b8b8b">
<path fill="#8b8b8b" opacity="0.55" d=" M 725.17 399.36 C 725.30 397.67 725.57 394.27 725.70 392.57 C 725.57 394.27 725.30 397.67 725.17 399.36 Z" />
</g>
<g id="#74747475">
<path fill="#747474" opacity="0.46" d=" M 2.18 403.81 C 3.36 405.35 3.51 407.38 2.71 409.14 C 1.61 407.55 1.45 405.57 2.18 403.81 Z" />
<path fill="#747474" opacity="0.46" d=" M 724.13 409.20 C 723.43 407.40 723.64 405.40 724.85 403.88 C 725.53 405.67 725.32 407.67 724.13 409.20 Z" />
<path fill="#747474" opacity="0.46" d=" M 404.07 725.00 C 405.26 723.34 407.64 723.02 409.07 724.60 L 408.57 725.00 L 404.07 725.00 Z" />
</g>
<g id="#9a9a9a9a">
<path fill="#9a9a9a" opacity="0.60" d=" M 723.06 415.14 C 722.44 413.62 722.74 411.94 723.94 410.80 C 724.54 412.31 724.25 414.00 723.06 415.14 Z" />
<path fill="#9a9a9a" opacity="0.60" d=" M 410.75 723.80 C 411.95 722.68 413.64 722.46 415.14 723.11 C 413.95 724.27 412.23 724.50 410.75 723.80 Z" />
</g>
<g id="#92929292">
<path fill="#929292" opacity="0.57" d=" M 722.14 422.12 C 721.47 420.62 721.73 418.93 722.94 417.79 C 723.56 419.28 723.29 420.96 722.14 422.12 Z" />
<path fill="#929292" opacity="0.57" d=" M 417.78 722.93 C 418.93 721.73 420.63 721.48 422.12 722.15 C 420.96 723.30 419.27 723.55 417.78 722.93 Z" />
</g>
<g id="#7e7e7e7e">
<path fill="#7e7e7e" opacity="0.49" d=" M 720.23 434.20 C 719.52 432.72 719.75 431.02 720.94 429.86 C 721.58 431.33 721.36 433.02 720.23 434.20 Z" />
<path fill="#7e7e7e" opacity="0.49" d=" M 429.86 720.92 C 431.04 719.75 432.75 719.56 434.21 720.32 C 433.00 721.41 431.32 721.59 429.86 720.92 Z" />
</g>
<g id="#bac5cdd2">
<path fill="#bac5cd" opacity="0.82" d=" M 7.76 435.33 L 7.67 434.65 C 14.17 458.88 20.35 483.33 30.72 506.29 C 42.46 532.30 55.88 557.89 73.75 580.28 C 81.06 590.43 89.13 600.04 97.85 609.01 C 105.11 618.23 113.92 625.97 122.54 633.85 L 123.13 634.47 C 122.57 634.21 121.45 633.69 120.89 633.43 C 119.65 632.73 118.42 632.04 117.18 631.35 C 116.40 629.19 114.70 627.61 112.50 626.99 C 79.57 594.99 52.16 557.17 33.08 515.35 C 33.22 513.50 32.36 511.77 30.80 510.77 C 21.11 486.35 10.99 461.57 7.76 435.33 Z" />
</g>
<g id="#9c9c9c9c">
<path fill="#9c9c9c" opacity="0.61" d=" M 703.65 490.01 C 703.41 488.17 704.67 486.73 706.16 485.87 C 706.08 487.55 705.55 489.59 703.65 490.01 Z" />
<path fill="#9c9c9c" opacity="0.61" d=" M 485.69 706.12 C 486.59 704.45 488.37 703.54 490.26 703.79 C 489.25 705.34 487.53 706.20 485.69 706.12 Z" />
</g>
<g id="#65656565">
<path fill="#656565" opacity="0.40" d=" M 701.07 498.06 C 700.60 496.36 701.70 494.64 703.36 494.20 C 703.46 495.82 702.67 497.49 701.07 498.06 Z" />
<path fill="#656565" opacity="0.40" d=" M 494.21 703.35 C 494.63 701.67 496.36 700.56 498.07 701.04 C 497.50 702.65 495.81 703.38 494.21 703.35 Z" />
</g>
<g id="#7c7c7c7d">
<path fill="#7c7c7c" opacity="0.49" d=" M 696.22 510.11 C 697.07 508.02 697.96 505.95 698.86 503.88 C 698.01 505.97 697.13 508.05 696.22 510.11 Z" />
</g>
<g id="#2573cfff">
<path fill="#2573cf" opacity="1.00" d=" M 189.19 536.31 C 231.97 528.30 274.11 517.31 316.10 505.92 C 315.59 509.52 315.11 513.17 314.82 516.80 C 314.55 519.89 314.32 523.07 314.18 526.19 C 313.86 535.36 313.90 544.54 314.26 553.72 C 314.40 556.52 314.58 559.43 314.84 562.27 C 318.18 593.52 326.96 624.33 341.99 652.01 C 355.68 678.62 375.23 701.76 397.50 721.60 C 372.57 724.26 347.46 722.42 322.45 723.44 C 313.33 722.46 304.32 720.75 295.32 719.07 C 291.58 718.36 287.78 717.96 284.02 717.47 C 268.56 712.94 252.92 708.95 237.84 703.23 C 196.33 687.83 157.89 664.61 124.40 635.69 C 123.98 635.28 123.56 634.87 123.13 634.47 L 122.54 633.85 C 115.20 624.73 106.58 616.77 97.85 609.01 C 89.13 600.04 81.06 590.43 73.75 580.28 C 68.54 571.88 63.15 563.61 57.95 555.21 C 101.96 550.95 145.76 544.61 189.19 536.31 Z" />
</g>
<g id="#4f4f4f4f">
<path fill="#4f4f4f" opacity="0.31" d=" M 30.80 510.77 C 32.36 511.77 33.22 513.50 33.08 515.35 C 31.44 514.41 30.57 512.63 30.80 510.77 Z" />
</g>
<g id="#7a7a7a7a">
<path fill="#7a7a7a" opacity="0.48" d=" M 690.98 521.17 C 692.50 517.67 694.20 514.26 695.90 510.85 C 694.52 514.41 692.81 517.82 690.98 521.17 Z" />
<path fill="#7a7a7a" opacity="0.48" d=" M 677.06 547.54 C 677.08 545.42 678.09 543.48 680.02 542.49 C 679.89 544.57 678.89 546.47 677.06 547.54 Z" />
<path fill="#7a7a7a" opacity="0.48" d=" M 542.49 680.01 C 543.48 678.09 545.42 677.08 547.54 677.06 C 546.47 678.89 544.57 679.89 542.49 680.01 Z" />
</g>
<g id="#82b2e4ff">
<path fill="#82b2e4" opacity="1.00" d=" M 314.18 526.19 C 314.32 523.07 314.55 519.89 314.82 516.80 C 314.59 519.94 314.35 523.02 314.18 526.19 Z" />
</g>
<g id="#87878787">
<path fill="#878787" opacity="0.53" d=" M 681.18 540.37 C 682.89 536.70 684.63 533.03 686.68 529.53 C 685.02 533.23 683.28 536.90 681.18 540.37 Z" />
<path fill="#878787" opacity="0.53" d=" M 529.53 686.65 C 533.05 684.64 536.71 682.90 540.37 681.18 C 536.91 683.28 533.24 685.02 529.53 686.65 Z" />
</g>
<g id="#7fafe3ff">
<path fill="#7fafe3" opacity="1.00" d=" M 314.26 553.72 C 314.43 556.57 314.58 559.37 314.84 562.27 C 314.58 559.43 314.40 556.52 314.26 553.72 Z" />
</g>
<g id="#5a96dbff">
<path fill="#5a96db" opacity="1.00" d=" M 97.85 609.01 C 106.58 616.77 115.20 624.73 122.54 633.85 C 113.92 625.97 105.11 618.23 97.85 609.01 Z" />
</g>
<g id="#39393939">
<path fill="#393939" opacity="0.22" d=" M 112.50 626.99 C 114.70 627.61 116.40 629.19 117.18 631.35 C 114.89 630.85 113.15 629.23 112.50 626.99 Z" />
</g>
<g id="#748496a0">
<path fill="#748496" opacity="0.63" d=" M 120.89 633.43 C 121.45 633.69 122.57 634.21 123.13 634.47 C 123.56 634.87 123.98 635.28 124.40 635.69 C 125.05 636.81 125.65 637.97 126.31 639.10 C 124.39 637.32 122.65 635.36 120.89 633.43 Z" />
</g>
<g id="#b7c3cfd5">
<path fill="#b7c3cf" opacity="0.84" d=" M 126.31 639.10 C 125.65 637.97 125.05 636.81 124.40 635.69 C 157.89 664.61 196.33 687.83 237.84 703.23 C 252.92 708.95 268.56 712.94 284.02 717.47 L 284.90 717.84 C 265.27 714.79 246.52 707.93 228.00 700.97 C 191.07 686.06 156.38 665.24 126.31 639.10 Z" />
</g>
<g id="#b2b2b2b2">
<path fill="#b2b2b2" opacity="0.70" d=" M 514.82 693.83 C 517.93 692.26 521.07 690.75 524.22 689.27 C 521.11 690.83 517.95 692.31 514.82 693.83 Z" />
</g>
<g id="#6e99cce6">
<path fill="#6e99cc" opacity="0.90" d=" M 284.02 717.47 C 287.78 717.96 291.58 718.36 295.32 719.07 C 293.76 719.18 292.21 719.36 290.65 719.49 C 290.22 719.44 289.35 719.34 288.92 719.29 C 290.49 717.30 286.87 716.33 286.53 718.55 C 286.12 718.37 285.31 718.01 284.90 717.84 L 284.02 717.47 Z" />
</g>
<g id="#e5e5e5e6">
<path fill="#e5e5e5" opacity="0.90" d=" M 286.53 718.55 C 286.87 716.33 290.49 717.30 288.92 719.29 C 288.32 719.10 287.13 718.73 286.53 718.55 Z" />
</g>
<g id="#b6c2ccd2">
<path fill="#b6c2cc" opacity="0.82" d=" M 290.65 719.49 C 292.21 719.36 293.76 719.18 295.32 719.07 C 304.32 720.75 313.33 722.46 322.45 723.44 C 323.22 723.82 324.77 724.58 325.54 724.96 L 324.66 725.00 L 322.06 725.00 C 321.21 723.59 319.22 723.02 318.04 724.38 C 314.74 723.85 311.46 723.38 308.17 722.88 C 306.99 721.72 305.29 721.50 303.83 722.21 C 299.42 721.33 295.06 720.32 290.65 719.49 Z" />
</g>
<g id="#5e98dcff">
<path fill="#5e98dc" opacity="1.00" d=" M 397.50 721.60 C 398.36 722.38 399.22 723.16 400.09 723.95 C 375.24 724.27 350.36 723.22 325.54 724.96 C 324.77 724.58 323.22 723.82 322.45 723.44 C 347.46 722.42 372.57 724.26 397.50 721.60 Z" />
</g>
<g id="#6f6f6f6f">
<path fill="#6f6f6f" opacity="0.44" d=" M 303.83 722.21 C 305.29 721.50 306.99 721.72 308.17 722.88 C 306.69 723.56 305.00 723.34 303.83 722.21 Z" />
</g>
</svg>
