<svg width="16" height="16" viewBox="0 0 16 16" xmlns="http://www.w3.org/2000/svg" fill="#424242">
  <defs>
    <clipPath id="disc"><circle cx="8" cy="8" r="6.45"/></clipPath>
  </defs>
  <path fill-rule="evenodd" clip-rule="evenodd" d="M8 1a7 7 0 1 0 0 14A7 7 0 0 0 8 1Zm0 1.1a5.9 5.9 0 1 1 0 11.8A5.9 5.9 0 0 1 8 2.1Z"/>
  <g clip-path="url(#disc)">
    <path fill-rule="evenodd" clip-rule="evenodd" d="M3.54 0.35a3.03 3.03 0 1 0 0 6.06 3.03 3.03 0 0 0 0-6.06Zm0 1.1a1.93 1.93 0 1 1 0 3.86 1.93 1.93 0 0 1 0-3.86Z"/>
    <path fill-rule="evenodd" clip-rule="evenodd" d="M11.38 6.34a4.83 4.83 0 1 0 0 9.66 4.83 4.83 0 0 0 0-9.66Zm0 1.1a3.73 3.73 0 1 1 0 7.46 3.73 3.73 0 0 1 0-7.46Z"/>
  </g>
</svg>
