<?xml version="1.0" encoding="UTF-8" ?>
<!DOCTYPE svg PUBLIC "-//W3C//DTD SVG 1.1//EN" "http://www.w3.org/Graphics/SVG/1.1/DTD/svg11.dtd">
<svg width="236pt" height="236pt" viewBox="0 0 236 236" version="1.1" xmlns="http://www.w3.org/2000/svg">
<g id="#000000fe">
<path fill="#000000" opacity="1.00" d=" M 16.43 1.49 C 27.20 -2.08 39.29 5.38 42.02 16.00 C 45.96 27.49 37.34 40.72 25.56 42.52 C 13.86 45.28 0.57 35.15 0.99 22.97 C -0.33 13.31 6.78 3.13 16.43 1.49 Z" />
<path fill="#000000" opacity="1.00" d=" M 93.42 43.63 C 114.91 42.06 136.48 43.46 158.00 42.94 C 169.76 43.40 182.02 41.30 193.33 45.53 C 217.44 52.67 235.70 76.65 234.98 101.97 C 235.12 126.99 234.98 152.01 235.06 177.03 C 235.63 208.04 207.10 236.22 176.03 234.98 C 151.01 235.12 125.99 234.99 100.97 235.06 C 71.34 235.43 44.30 209.58 43.15 179.99 C 42.56 158.33 43.28 136.66 42.91 115.00 C 43.20 104.87 41.73 94.35 45.54 84.67 C 52.18 63.55 71.28 46.44 93.42 43.63 M 88.45 67.54 C 74.70 69.96 64.27 84.69 67.47 98.57 C 69.11 111.22 81.28 121.35 94.00 120.78 C 110.06 121.63 123.87 105.18 120.51 89.43 C 118.70 74.71 102.78 64.24 88.45 67.54 M 166.42 127.52 C 141.51 130.06 122.07 156.28 128.07 180.90 C 131.68 203.51 155.33 220.34 177.87 216.77 C 192.20 215.61 204.49 205.68 211.74 193.73 C 220.07 178.69 218.88 158.49 207.97 145.01 C 198.65 132.26 182.11 125.08 166.42 127.52 Z" />
</g>
</svg>
