<?xml version="1.0" encoding="UTF-8" ?>
<!DOCTYPE svg PUBLIC "-//W3C//DTD SVG 1.1//EN" "http://www.w3.org/Graphics/SVG/1.1/DTD/svg11.dtd">
<svg width="236pt" height="236pt" viewBox="0 0 236 236" version="1.1" xmlns="http://www.w3.org/2000/svg">
<g id="#c5c5c5ff">
<path fill="#c5c5c5" opacity="1.00" d=" M 17.29 0.00 L 25.74 0.00 C 32.75 2.55 40.32 7.13 42.18 14.87 C 43.39 21.58 44.14 29.59 38.87 34.89 C 34.34 42.60 24.42 43.98 16.33 42.70 C 8.25 40.63 1.89 33.70 0.00 25.64 L 0.00 17.30 C 2.49 8.90 9.09 2.76 17.29 0.00 Z" />
<path fill="#c5c5c5" opacity="1.00" d=" M 50.00 73.00 C 60.55 52.86 83.62 41.30 105.98 41.92 C 130.85 42.27 155.75 41.20 180.60 42.54 C 193.41 43.32 205.32 48.85 215.17 56.85 C 226.77 66.88 233.46 81.53 236.00 96.45 L 236.00 181.54 C 233.29 198.60 224.74 215.35 209.96 224.95 C 201.67 231.20 191.44 233.93 181.43 236.00 L 96.56 236.00 C 79.02 233.18 61.80 224.18 52.15 208.83 C 45.14 197.95 41.76 184.92 41.92 172.02 C 41.91 152.01 41.96 131.99 41.91 111.98 C 41.91 98.69 42.93 84.64 50.00 73.00 M 92.32 67.28 C 82.09 68.52 72.48 75.15 69.13 85.13 C 61.66 101.74 77.96 123.00 95.96 119.94 C 109.91 120.15 122.09 105.71 119.98 92.03 C 120.10 77.80 105.92 66.66 92.32 67.28 M 163.43 128.51 C 142.85 132.29 125.84 152.77 127.92 174.02 C 127.85 192.60 141.85 209.23 159.14 214.82 C 178.38 221.17 201.41 211.84 210.84 193.90 C 221.41 176.86 217.32 152.81 202.29 139.70 C 192.23 129.67 177.25 125.94 163.43 128.51 Z" />
</g>
</svg>
